<?xml version="1.0" encoding="UTF-8" standalone="no"?>
<svg
   xmlns:dc="http://purl.org/dc/elements/1.1/"
   xmlns:cc="http://creativecommons.org/ns#"
   xmlns:rdf="http://www.w3.org/1999/02/22-rdf-syntax-ns#"
   xmlns:svg="http://www.w3.org/2000/svg"
   xmlns="http://www.w3.org/2000/svg"
   xmlns:sodipodi="http://sodipodi.sourceforge.net/DTD/sodipodi-0.dtd"
   xmlns:inkscape="http://www.inkscape.org/namespaces/inkscape"
   version="1.0"
   width="334.000000pt"
   height="300.000000pt"
   viewBox="0 0 334.000000 300.000000"
   preserveAspectRatio="xMidYMid meet"
   id="svg2"
   inkscape:version="0.91 r13725"
   sodipodi:docname="Sh_logo_f.svg">
  <defs
     id="defs30" />
  <sodipodi:namedview
     pagecolor="#ffffff"
     bordercolor="#666666"
     borderopacity="1"
     objecttolerance="10"
     gridtolerance="10"
     guidetolerance="10"
     inkscape:pageopacity="0"
     inkscape:pageshadow="2"
     inkscape:window-width="1366"
     inkscape:window-height="706"
     id="namedview28"
     showgrid="false"
     inkscape:zoom="0.89001174"
     inkscape:cx="24.369695"
     inkscape:cy="90.442558"
     inkscape:window-x="-8"
     inkscape:window-y="-8"
     inkscape:window-maximized="1"
     inkscape:current-layer="svg2"
     inkscape:snap-intersection-paths="false"
     inkscape:object-paths="false"
     inkscape:object-nodes="false"
     inkscape:snap-smooth-nodes="false" />
  <metadata
     id="metadata4">
Created by potrace 1.13, written by Peter Selinger 2001-2015
<rdf:RDF>
  <cc:Work
     rdf:about="">
    <dc:format>image/svg+xml</dc:format>
    <dc:type
       rdf:resource="http://purl.org/dc/dcmitype/StillImage" />
    <dc:title></dc:title>
  </cc:Work>
</rdf:RDF>
</metadata>
  <g
     transform="translate(0.000000,300.000000) scale(0.100000,-0.100000)"
     id="g6"
     stroke="none"
     fill="#000000">
    <path
       d="M702 2898 c-7 -7 -12 -16 -12 -22 0 -17 120 -339 132 -353 6 -8 20 -13 31 -11 44 7 42 28 -22 203 -34 93 -67 175 -73 182 -13 16 -40 17 -56 1z"
       id="path8"
       style="fill:#ffff00;stroke-width:8;stroke-miterlimit:4;stroke-dasharray:none;stroke:#000000;stroke-opacity:1" />
    <path
       d="m 1345,2820 c -3,-5 -17,-71 -30,-147 l -25,-137.7191 c 8.8276,-24.5536 49.8047,-30.4989 68.8651,-21.3484 C 1372,2520.0337 1372,2520 1400,2683 c 17,92 19,122 9,133 -13,16 -55,19 -64,4 z"
       id="path10"
       style="fill:#ffff00;stroke:#000000;stroke-width:8;stroke-miterlimit:4;stroke-dasharray:none;stroke-opacity:1"
       inkscape:connector-curvature="0"
       sodipodi:nodetypes="scccccs" />
    <path
       d="M145 2466 c-10 -7 -15 -22 -13 -35 2 -19 42 -45 218 -138 219 -117 229 -120 254 -80 8 12 7 20 -4 31 -14 13 -386 215 -422 228 -9 4 -24 1 -33 -6z"
       id="path12"
       style="fill:#ffff00;stroke:#000000;stroke-opacity:1;stroke-width:8;stroke-miterlimit:4;stroke-dasharray:none" />
    <path
       d="m 938,2018 c -16,-5 -28,-13 -28,-18 0,-14 442,-1224 450,-1234 9,-9 80,11 80,24 0,6 -169,475 -195,541 -4,11 26,55 96,138 56,67 103,121 104,119 1,-2 31,-167 65,-368 62,-353 74,-400 106,-400 58.6099,16.97776 58.7924,17.47881 247.7924,172.60598 -48.4788,54.95762 -48.4788,54.95762 -48.4788,54.95762 -117.0805,-91.2458 -70.6294,-53.65744 -125.0255,-99.19072 C 1638.005,904.60823 1644,964 1638,978 c -4,9 -32,163 -63,342 -31,179 -61,338 -67,353 -6,15 -20,32 -30,38 -25,13 -40,0 -168,-155 -52,-63 -97,-115 -100,-115 -3,-1 -53,131 -111,292 -68,188 -110,293 -120,294 -8,1 -26,-3 -41,-9 z"
       id="path16"
       inkscape:connector-curvature="0"
       sodipodi:nodetypes="cscsccscccsscsscccccc"
       style="fill:#ffff00;stroke:#000000;stroke-opacity:1;stroke-width:8;stroke-miterlimit:4;stroke-dasharray:none" />
    <path
       d="m 2933,1854 c -53,-19 -108,-80 -123,-135 -16,-58 -5,-133 29,-205 63,-133 176,-174 302,-108 108.8741,60.7711 93,208 93,208 -32,193 -155,291 -301,240 z m 133,-73 c 49,-30 88,-120 89,-204 3.9725,-68.178 -32,-97 -32,-97 -45,-40 -98,-49 -143,-23 -74,43 -124,207 -86,282 30,57 114,78 172,42 z"
       id="path18"
       inkscape:connector-curvature="0"
       sodipodi:nodetypes="cccccccccccc"
       style="fill:#00aa00;stroke-width:8;stroke-miterlimit:4;stroke-dasharray:none;stroke:#000000;stroke-opacity:1" />
    <path
       d="M2664 1751 c-18 -11 -44 -36 -60 -57 l-28 -37 -13 31 c-12 29 -14 30 -48 19 -23 -7 -34 -15 -31 -24 3 -7 35 -106 72 -220 37 -115 68 -209 69 -211 1 -1 18 4 37 10 l35 13 -50 157 c-46 144 -49 160 -37 184 16 28 86 74 114 74 13 0 16 5 12 16 -3 9 -9 27 -12 40 -7 29 -19 30 -60 5z"
       id="path20"
       style="fill:#00aa00;stroke:#000000;stroke-opacity:1;stroke-width:8;stroke-miterlimit:4;stroke-dasharray:none" />
    <path
       d="M2225 1625 c-23 -8 -56 -32 -77 -57 -21 -24 -38 -38 -38 -33 -1 27 -16 35 -48 24 -18 -6 -32 -14 -32 -17 0 -4 42 -137 94 -295 61 -188 90 -290 82 -292 -6 -3 -200 -69 -431 -149 -494 -169 -452 -154 -459 -172 -8 -21 11 -54 30 -54 27 0 1528 520 1543 534 16 16 7 52 -15 60 -9 3 -140 -37 -292 -89 -152 -53 -281 -94 -287 -92 -8 4 -55 129 -55 148 0 3 15 3 34 1 45 -5 127 22 153 51 41 45 57 89 57 157 -2 118 -62 236 -138 271 -49 22 -68 23 -121 4z m115 -103 c61 -61 89 -187 55 -252 -9 -16 -29 -37 -45 -45 -36 -18 -111 -29 -126 -18 -6 4 -29 65 -51 134 l-40 126 23 26 c32 37 84 67 118 67 20 0 40 -12 66 -38z"
       id="path22"
       style="fill:#00aa00;stroke:#000000;stroke-opacity:1;stroke-width:8;stroke-miterlimit:4;stroke-dasharray:none" />
  </g>
  <ellipse
     style="opacity:1;fill:#00aa00;fill-opacity:1;fill-rule:evenodd;stroke:#000000;stroke-width:0.8;stroke-linejoin:miter;stroke-miterlimit:4;stroke-dasharray:none;stroke-opacity:1"
     id="path4158"
     cx="198.30508"
     cy="186.5466"
     rx="6.9915252"
     ry="6.6737289" />
  <path
     style="fill:#00aa00;fill-rule:evenodd;stroke:#000000;stroke-width:0.80000001px;stroke-linecap:butt;stroke-linejoin:miter;stroke-opacity:1"
     d="m 142.4312,249.09481 41.12306,-13.48297 c 0,0 3.24633,8.06653 -5.3932,10.78638 l -24.26933,7.64034 c -8.68659,2.73467 -11.46053,-4.94375 -11.46053,-4.94375 z"
     id="path4172"
     inkscape:connector-curvature="0"
     sodipodi:nodetypes="ccssc" />
  <path
     style="fill:#00aa00;fill-rule:evenodd;stroke:#000000;stroke-width:0.80000001px;stroke-linecap:butt;stroke-linejoin:miter;stroke-opacity:1"
     d="m 156.62715,261.34882 25.84235,-8.3145 c 0,0 2.64736,7.04628 -8.76393,11.01109 -14.50503,5.03973 -17.07842,-2.69659 -17.07842,-2.69659 z"
     id="path4174"
     inkscape:connector-curvature="0"
     sodipodi:nodetypes="ccsc" />
  <path
     style="fill:#00aa00;fill-rule:evenodd;stroke:#000000;stroke-width:0.80000001px;stroke-linecap:butt;stroke-linejoin:miter;stroke-opacity:1"
     d="m 180.89648,91.238708 c 0,0 -25.66279,-39.628288 -81.122513,-22.69633 -24.373899,7.441397 -56.577836,30.333156 -46.291526,76.403482 8.726808,39.08563 38.888979,43.4841 52.583579,75.50463 7.14393,16.70385 2.57808,29.99294 -8.539217,38.65117 -11.117305,8.65823 -44.943226,-1.3483 -44.943226,-1.3483 l -0.449433,11.23581 c 0,0 36.630998,11.47623 52.134136,0 15.50315,-11.47623 22.10213,-24.96765 13.9324,-50.33642 C 107.89504,186.65148 72.049061,176.22093 64.268816,142.69871 61.16863,129.34114 62.818811,89.66076 106.51544,77.980456 c 43.69664,-11.680304 64.26882,21.34803 64.26882,21.34803 z"
     id="path4176"
     inkscape:connector-curvature="0"
     sodipodi:nodetypes="cssszcczsszcc" />
</svg>
